<svg xmlns="http://www.w3.org/2000/svg" viewBox="0 0 25 25"><defs><style>.cls-1{fill:#231f20}</style></defs><g id="window"><path class="cls-1" d="M23.5 21H23V2.21A1.21 1.21 0 0 0 21.79 1H3.21A1.21 1.21 0 0 0 2 2.21V21h-.5a.5.5 0 0 0-.5.5v1.59a.91.91 0 0 0 .91.91h21.18a.91.91 0 0 0 .91-.91V21.5a.5.5 0 0 0-.5-.5zM3 2.21A.21.21 0 0 1 3.21 2h18.58a.21.21 0 0 1 .21.21V21h-1V4a1 1 0 0 0-1-1H5a1 1 0 0 0-1 1v17H3zM13 4h7v17h-7zm-1 17H5V4h7zm11 2H2v-1h21z"/><path class="cls-1" d="M7.5 8.7a.52.52 0 0 0 .35-.14l1.25-1.2a.5.5 0 1 0-.7-.72l-1.25 1.2a.5.5 0 0 0 .35.86zM7.5 10.5a.52.52 0 0 0 .35-.14L10.35 8a.5.5 0 0 0-.7-.72l-2.5 2.4a.5.5 0 0 0 .35.86zM15.5 8.7a.52.52 0 0 0 .35-.14l1.25-1.2a.5.5 0 1 0-.7-.72l-1.25 1.2a.5.5 0 0 0 .35.86zM17.65 7.24l-2.5 2.4a.5.5 0 0 0 .35.86.52.52 0 0 0 .35-.14L18.35 8a.5.5 0 1 0-.7-.72z"/></g></svg>
