<svg xmlns="http://www.w3.org/2000/svg" viewBox="0 0 25 25"><defs><style>.cls-1{fill:#231f20}</style></defs><g id="sofa"><path class="cls-1" d="M23 10h-.49a7 7 0 0 0-7-6.5h-6a7 7 0 0 0-7 6.5H2a1 1 0 0 0-1 1v8.5a.5.5 0 0 0 .5.5H2v1.5a.5.5 0 0 0 .5.5h3a.5.5 0 0 0 .5-.5V20h13v1.5a.5.5 0 0 0 .5.5h3a.5.5 0 0 0 .5-.5V20h.5a.5.5 0 0 0 .5-.5V11a1 1 0 0 0-1-1zM9.49 4.5h6a6 6 0 0 1 6 5.5H20a1 1 0 0 0-1 1v4H6v-4a1 1 0 0 0-1-1H3.52a6 6 0 0 1 5.97-5.5zM5 21H3v-1h2zm17 0h-2v-1h2zm.5-2H2v-8h3v4a1 1 0 0 0 1 1h13a1 1 0 0 0 1-1v-4h3v8z"/><path class="cls-1" d="M8.52 9a.5.5 0 0 0 0-1 .49.49 0 0 0-.52.5.5.5 0 0 0 .52.5zM12.52 9a.5.5 0 0 0 0-1 .49.49 0 0 0-.49.5.5.5 0 0 0 .49.5zM16.52 9a.5.5 0 0 0 0-1 .49.49 0 0 0-.49.5.5.5 0 0 0 .49.5zM8.52 12a.5.5 0 0 0 0-1 .49.49 0 0 0-.49.5.5.5 0 0 0 .49.5zM12.52 12a.5.5 0 0 0 0-1 .49.49 0 0 0-.49.5.5.5 0 0 0 .49.5zM16.52 12a.5.5 0 0 0 0-1 .49.49 0 0 0-.49.5.5.5 0 0 0 .49.5z"/></g></svg>
